<svg xmlns="http://www.w3.org/2000/svg" width="16mm" height="21mm" viewBox="0 -5 215 295">
  <defs>
    <linearGradient id="wire" x1="0" y1="0" x2="1" y2="1"><stop offset="0" stop-color="#ffb13b"/><stop offset=".48" stop-color="#f39a2e"/><stop offset="1" stop-color="#d65f1b"/></linearGradient>
    <linearGradient id="grip" x1="0" y1="0" x2=".75" y2="1"><stop offset="0" stop-color="#ffd15a"/><stop offset=".58" stop-color="#f28b25"/><stop offset="1" stop-color="#b94718"/></linearGradient>
  </defs>
  <polyline fill="none" stroke="#f28b25" stroke-width="24" stroke-linecap="round" stroke-linejoin="round" points="15.0,255.0 23.0,251.0 27.0,247.0 25.0,243.0 18.0,238.0 12.0,233.0 11.0,228.0 15.0,224.0 23.0,220.0 31.0,216.0 35.0,212.0 33.0,207.0 27.0,202.0 20.0,197.0 19.0,192.0 23.0,188.0 31.0,184.0 39.0,180.0 43.0,176.0 41.0,171.0 35.0,166.0 28.0,161.0 27.0,156.0 31.0,152.0 39.0,148.0 43.0,144.0 41.0,139.0 35.0,134.0 28.0,129.0 27.0,124.0 31.0,120.0 39.0,116.0 43.0,112.0 41.0,107.0 35.0,102.0 28.0,97.0 27.0,92.0 31.0,88.0 39.0,84.0 43.0,80.0 41.0,75.0 35.0,70.0 28.0,65.0 25.0,60.0 25.0,55.0 20.6,51.8 17.7,48.1 17.0,44.5 19.0,41.3 23.1,39.1 28.4,37.8 33.7,37.1 37.8,36.4 40.1,35.0 40.5,32.4 39.6,28.3 38.2,23.2 37.4,17.8 37.9,13.1 40.0,10.1 43.6,9.3 48.1,10.6 52.8,13.4 57.0,16.6 60.4,19.1 63.0,19.7 65.1,18.1 67.4,14.6 70.0,10.0 73.2,5.6 76.9,2.7 80.5,2.0 83.7,4.0 85.9,8.1 87.2,13.4 87.9,18.7 88.6,22.8 90.0,25.1 92.6,25.5 96.7,24.6 101.8,23.2 107.2,22.4 111.9,22.9 114.9,25.0 115.7,28.6 114.4,33.1 111.6,37.8 108.4,42.0 105.9,45.4 105.3,48.0 106.9,50.1 110.4,52.4 115.0,55.0 107.8,51.3 101.0,49.1 94.9,49.3 89.8,52.2 86.0,57.4 83.3,63.9 81.6,70.3 80.0,75.3 78.0,78.2 74.8,78.9 70.2,78.2 64.3,77.2 58.2,77.2 53.1,78.8 50.2,82.2 50.3,86.7 53.2,91.2 58.0,95.0 61.7,96.7 65.2,97.1 68.3,97.5 71.1,98.7 73.7,100.9 76.2,104.3 78.6,108.7 80.8,113.9 82.7,119.5 84.5,125.1 87.5,131.0 88.5,137.0 87.0,142.0 90.0,147.0 95.0,150.0 100.0,150.0"/>
  <path transform="rotate(-50 100 150)" fill="url(#grip)" stroke="#963713" stroke-width="2" d="M100 150 C116 145 135 130 151 117 C168 104 183 89 191 80 C195 75 192 70 187 72 C170 78 155 89 141 102 C125 117 109 136 100 150 Z"/>
  <path fill="url(#grip)" stroke="#963713" stroke-width="2" d="M100.11366 150 C106.05913 166.10858 108.72106 184.39683 109.19398 204.1382 C109.6669 223.87956 108.2631 242.63836 110.5592 255.96994 C110.92503 260.9266 116.65931 263.0624 120.25513 258.44705 C126.7151 239.30302 128.4312 218.10854 127.07196 197.46995 C126.59904 177.72859 117.99463 158.92834 100.11366 150 Z"/>
  <path fill="url(#grip)" stroke="#963713" stroke-width="2" stroke-linejoin="round" d="M84 143 C90 145 96 147 100 148 C103 146 106 144 109 143 C108 147 106 150 104 152 C106 157 108 163 109 170 C105 165 102 159 100 155 C94 155 88 153 82 150 C81 147 82 145 84 143 Z"/>
</svg>
